<svg xmlns="http://www.w3.org/2000/svg" xmlns:xlink="http://www.w3.org/1999/xlink" version="1.1" x="0px" y="0px" viewBox="0 0 61.558 125" enable-background="new 0 0 61.558 100" xml:space="preserve"><path fill="#000000" d="M43.728,75.19H17.831c-0.441,0-0.876-0.104-1.27-0.301c-0.44-0.22-4.293-2.351-4.293-9.354  c0-9.208-1.433-11.687-3.457-14.183C5.029,46.685,0,39.404,0,30.098C0,13.503,13.502,0,30.097,0h1.363  c16.597,0,30.098,13.503,30.098,30.098c0,9.305-5.027,16.585-8.81,21.251c-2.024,2.499-3.457,4.978-3.457,14.186  c0,7.005-3.855,9.135-4.295,9.354C44.603,75.086,44.168,75.19,43.728,75.19z M28.735,69.514h13.929  c0.39-0.533,0.953-1.7,0.953-3.979c0-10.027,1.658-13.979,4.722-17.757c5.218-6.439,7.544-11.892,7.544-17.68  c0-13.467-10.956-24.423-24.423-24.423h-1.363C16.63,5.675,5.674,16.63,5.674,30.098c0,5.791,2.328,11.241,7.545,17.68  c3.063,3.778,4.723,7.729,4.723,17.757c0,2.279,0.562,3.446,0.952,3.979H28.735z"/><path fill="#000000" d="M42.129,91.133c0,4.897-5.081,8.866-11.35,8.866c-4.762,0-8.839-2.289-10.523-5.538  c-0.532-1.028-0.825-2.152-0.825-3.328"/><path fill="#000000" d="M17.301,88.425c-0.75,0-1.375-0.588-1.416-1.346c-0.04-0.78,0.56-1.449,1.343-1.49l26.954-1.419  c0.764-0.046,1.451,0.56,1.492,1.343c0.04,0.781-0.561,1.45-1.342,1.492l-26.956,1.418C17.352,88.425,17.326,88.425,17.301,88.425z"/><path fill="#000000" d="M17.301,82.75c-0.75,0-1.375-0.587-1.416-1.343c-0.04-0.782,0.56-1.451,1.343-1.491l26.954-1.421  c0.764-0.049,1.451,0.561,1.492,1.343c0.04,0.783-0.561,1.452-1.342,1.492l-26.956,1.419C17.352,82.75,17.326,82.75,17.301,82.75z"/><text x="0" y="115" fill="#000000" font-size="5px" font-weight="bold" font-family="'Helvetica Neue', Helvetica, Arial-Unicode, Arial, Sans-serif">Created by Matt Brooks</text><text x="0" y="120" fill="#000000" font-size="5px" font-weight="bold" font-family="'Helvetica Neue', Helvetica, Arial-Unicode, Arial, Sans-serif">from the Noun Project</text></svg>